PathFileType	4	(X/Y/Z)	C:\Users\86182\Documents\cortex\Trimmed_M1_L1.trc
DataRate	CameraRate	NumFrames	NumMarkers	Units	OrigDataRate	OrigDataStartFrame	OrigNumFrames
100.00	100.00	      56	2	mm	100.00	401	      1001
Frame#	Time	gripper			box			
		X1	Y1	Z1	X2	Y2	Z2	

401	4.000	197.11151	193.62485	293.47321	199.34969	192.50105	158.22003	
402	4.010	197.13525	193.64365	293.48239	199.38521	192.51274	158.20650	
403	4.020	197.12810	193.63797	293.47964	199.41257	192.50861	158.18462	
404	4.030	197.15892	193.63744	293.46671	199.40694	192.50418	158.18256	
405	4.040	197.15562	193.64984	293.48041	199.41257	192.50861	158.18462	
406	4.050	197.13428	193.62045	293.45966	199.38167	192.48431	158.17340	
407	4.060	197.12524	193.61827	293.46118	199.41257	192.50861	158.18462	
408	4.070	197.16231	193.65012	293.47797	199.41257	192.50861	158.18462	
409	4.080	197.12616	193.62898	293.47147	199.41257	192.50861	158.18462	
410	4.090	197.17615	193.64351	293.46582	199.41257	192.50861	158.18462	
411	4.100	197.10410	193.60353	293.45569	199.36778	192.47340	158.16833	
412	4.110	197.14937	193.55634	293.39346	199.33591	192.46930	158.14445	
413	4.120	197.14423	193.53101	293.37234	199.29779	192.47929	158.14056	
414	4.130	197.10648	193.51398	293.30975	199.29106	192.48982	158.12231	
415	4.140	197.11122	193.52509	293.28326	199.33084	192.48907	158.10693	
416	4.150	197.09558	193.52295	293.23764	199.32855	192.47870	158.07390	
417	4.160	197.09558	193.52295	293.23764	199.30373	192.48062	158.04588	
418	4.170	197.09558	193.52295	293.23764	199.30595	192.48441	158.04727	
419	4.180	197.09558	193.52295	293.23764	199.30739	192.47505	158.05147	
420	4.190	197.09558	193.52295	293.23764	199.31010	192.47081	158.05574	
421	4.200	197.10120	193.52419	293.25217	199.32582	192.47925	158.07072	
422	4.210	197.10971	193.52611	293.27411	199.35316	192.48865	158.09831	
423	4.220	197.10974	193.52139	293.29242	199.35316	192.48865	158.09831	
424	4.230	197.11153	193.52583	293.28143	199.35316	192.48865	158.09831	
425	4.240	197.10974	193.52139	293.29242	199.35316	192.48865	158.09831	
426	4.250	197.11186	193.52660	293.27960	199.36131	192.48593	158.10033	
427	4.260	197.10971	193.52611	293.27411	199.35316	192.48865	158.09831	
428	4.270	197.09909	193.52373	293.24670	199.33488	192.47986	158.08060	
429	4.280	197.09628	193.52310	293.23944	199.34264	192.48640	158.08728	
430	4.290	197.09837	193.52357	293.24487	199.32767	192.47641	158.07358	
431	4.300	197.09558	193.52295	293.23764	199.35159	192.49431	158.08447	
432	4.310	197.09558	193.52295	293.23764	199.34724	192.48674	158.09225	
433	4.320	197.10687	193.52548	293.26675	199.33855	192.48163	158.08412	
434	4.330	197.10544	193.52515	293.26309	199.35135	192.48778	158.09653	
435	4.340	197.11186	193.52660	293.27960	199.35135	192.48778	158.09653	
436	4.350	197.11186	193.52660	293.27960	199.35316	192.48865	158.09831	
437	4.360	197.11186	193.52660	293.27960	199.35316	192.48865	158.09831	
438	4.370	197.10544	193.52515	293.26309	199.35316	192.48865	158.09831	
439	4.380	197.10120	193.52419	293.25217	199.35316	192.48865	158.09831	
440	4.390	197.09558	193.52295	293.23764	199.30640	192.48007	158.04901	
441	4.400	197.09558	193.52295	293.23764	199.32440	192.48871	158.06645	
442	4.410	197.09767	193.52341	293.24307	199.32585	192.47554	158.07182	
443	4.420	197.10048	193.52403	293.25034	199.33673	192.48076	158.08237	
444	4.430	197.11186	193.52660	293.27960	199.35316	192.48865	158.09831	
445	4.440	197.11186	193.52660	293.27960	199.35316	192.48865	158.09831	
446	4.450	197.11186	193.52660	293.27960	199.35316	192.48865	158.09831	
447	4.460	197.11186	193.52660	293.27960	199.35316	192.48865	158.09831	
448	4.470	197.11111	193.52641	293.27777	199.35316	192.48865	158.09831	
449	4.480	197.10005	193.52127	293.25946	199.35316	192.48865	158.09831	
450	4.490	197.11111	193.52641	293.27777	199.35316	192.48865	158.09831	
451	4.500	197.09909	193.52373	293.24670	199.33942	192.48764	158.08337	
452	4.510	197.10262	193.52452	293.25580	199.32767	192.47641	158.07358	
453	4.520	197.09628	193.52310	293.23944	199.36319	192.49002	158.05606	
454	4.530	197.09558	193.52295	293.23764	199.32585	192.47554	158.07182	
455	4.540	197.09558	193.52295	293.23764	199.34218	192.48338	158.08765	
456	4.550	197.09981	193.52390	293.24854	199.32045	192.47296	158.06657	
